<?xml version="1.0" encoding="utf-8"?>
<!-- Generator: Adobe Illustrator 18.1.0, SVG Export Plug-In . SVG Version: 6.00 Build 0)  -->
<svg version="1.0" id="Layer_1" xmlns="http://www.w3.org/2000/svg" xmlns:xlink="http://www.w3.org/1999/xlink" x="0px" y="0px"
	 viewBox="0 0 163.3 141.8" enable-background="new 0 0 163.3 141.8" xml:space="preserve">
<g>
	<g>
		<g>
			<path fill="#FBEACF" d="M13.1,114.3c-2,0-3.6-0.2-4.9-0.6v-9.7c0.3,0.2,0.8,0.2,1.1,0.2c2.4,0,4.2-1.8,4.2-4.2
				c0-3.9-4.6-7.2-4.6-13.5c0-7.3,4.2-12.6,12.6-12.6c1.3,0,2.8,0.2,3.8,0.6v9.6c-0.3-0.1-0.3-0.1-0.5-0.1c-2,0-3.5,1.4-3.5,3.7
				c0,3.2,4.9,6.1,4.9,13.7C26.3,108.3,21.4,114.3,13.1,114.3z"/>
			<path fill="#FBEACF" d="M47.2,86.3v27.4H35.7V86.3h-6.5V74.6h24.6v11.6H47.2z"/>
			<path fill="#FBEACF" d="M71.8,111.6h-8.7l-0.7,2H49.9l17.5-40.2l17.5,40.2H72.5L71.8,111.6z M64.8,106.8H70l-2.6-6.9L64.8,106.8z
				"/>
			<path fill="#FBEACF" d="M107.8,113.6V101l-4.7,5.5l-4.7-5.5v12.6H86.9v-40l16.3,18.7l16.3-18.7v40H107.8z"/>
			<path fill="#FBEACF" d="M139.9,105.1h-2.2v8.5h-11.5v-39h13.7c8.4,0,15.2,6.8,15.2,15.2C155.2,98.3,148.4,105.1,139.9,105.1z
				 M139.9,85.6h-2.2v8.5h2.2c2.3,0,4.3-1.9,4.3-4.3C144.2,87.6,142.3,85.6,139.9,85.6z"/>
		</g>
		<g>
			<g>
				<path fill="#FBEACF" d="M69.2,65.7h-8.7l-0.7,2H47.4l17.5-40.2l17.5,40.2H70L69.2,65.7z M62.3,60.9h5.1L64.9,54L62.3,60.9z"/>
				<path fill="#FBEACF" d="M36.8,68.9l-7.7-17.8l-7.7,17.8L3.9,28.7h12.9L22,42.4l5.1-13.7h4.1l5.1,13.7l5.1-13.7h13L36.8,68.9z"/>
				<path fill="#FBEACF" d="M103,67.7l-5.2-10.4l-5.2,10.4H79.8l10.7-19.6L79.9,28.7h12.7l5.1,10.1l5.1-10.1h12.7L105,48.1
					l10.7,19.6H103z"/>
			</g>
			<g>
				<g>
					<path fill="#FBEACF" d="M145.7,46.3l1.2-2h12.5l-8.3,14.5l4,9.2h-12.6l-0.5-1c-1.9,1.1-4.3,1.8-6.7,1.8
						c-7.5,0-13.5-6-13.5-13.5c0-6.1,4-11.2,9.6-12.9l-5.7-13.4h23.8v11.6h-6.3L145.7,46.3z M137.7,56.7l-1.8-4.1
						c-0.2,0-0.3-0.1-0.5-0.1c-1.5,0-2.7,1.2-2.7,2.7c0,1.5,1.2,2.7,2.7,2.7C136.3,57.9,137.1,57.4,137.7,56.7z"/>
				</g>
			</g>
		</g>
	</g>
	<g>
		<text transform="matrix(1 0 0 1 15.2911 134.3785)" fill="#FBEACF" font-family="'GillSans'" font-size="17.4678">SOUNDS SUPERB</text>
	</g>
	<text transform="matrix(1 0 0 1 4.8134 18.1414)" fill="#FBEACF" font-family="'GillSans'" font-size="17.4678">CURATED FOR YOU</text>
</g>
</svg>
